<?xml version="1.0" standalone="no"?>
<!DOCTYPE svg PUBLIC "-//W3C//DTD SVG 20010904//EN"
 "http://www.w3.org/TR/2001/REC-SVG-20010904/DTD/svg10.dtd">
<svg version="1.0" xmlns="http://www.w3.org/2000/svg"
 width="132.000000pt" height="132.000000pt" viewBox="0 0 132.000000 132.000000"
 preserveAspectRatio="xMidYMid meet">
<metadata>
Created by potrace 1.11, written by Peter Selinger 2001-2013
</metadata>
<g transform="translate(0.000000,132.000000) scale(0.100000,-0.100000)"
fill="#000000" stroke="none">
<path d="M1270 1305 c-7 -8 -9 -15 -4 -15 5 0 2 -4 -6 -10 -8 -5 -11 -12 -8
-15 9 -10 68 27 68 42 0 18 -35 16 -50 -2z"/>
<path d="M923 1077 c-24 -11 -43 -26 -43 -33 0 -17 24 -34 36 -26 10 7 59 83
52 81 -2 0 -22 -10 -45 -22z"/>
<path d="M271 1044 c0 -11 3 -14 6 -6 3 7 2 16 -1 19 -3 4 -6 -2 -5 -13z"/>
<path d="M406 1035 c-9 -13 -16 -29 -16 -35 0 -5 -5 -10 -12 -10 -6 0 -9 -3
-5 -6 10 -10 -14 -64 -30 -64 -8 0 -11 4 -8 10 3 5 -3 15 -15 22 -21 14 -29
34 -7 22 6 -4 3 3 -8 15 -19 23 -20 23 -23 3 -8 -50 -154 -62 -235 -19 l-47
25 0 -88 c0 -80 2 -89 20 -95 11 -3 20 -11 20 -16 0 -5 11 -14 25 -19 19 -7
25 -17 25 -41 0 -24 4 -30 15 -25 8 3 15 0 15 -6 0 -12 38 -48 52 -48 4 0 8
-6 8 -14 0 -15 104 -51 138 -47 20 2 26 -6 23 -35 -1 -6 11 -21 26 -35 14 -13
23 -19 19 -12 -3 6 -2 14 3 18 6 3 15 -4 21 -16 8 -15 9 -19 1 -15 -11 7 -16
-12 -11 -43 1 -13 -32 -51 -46 -51 -16 0 -49 -48 -50 -73 -1 -20 3 -27 17 -27
32 0 21 -16 -18 -26 -20 -5 -39 -15 -41 -23 -3 -10 0 -12 12 -8 24 9 20 1 -16
-33 -17 -17 -28 -33 -25 -36 3 -4 0 -19 -8 -35 -8 -15 -15 -37 -15 -49 0 -11
-4 -20 -8 -20 -4 0 -13 -18 -19 -40 l-10 -40 274 0 275 0 29 29 c16 16 29 32
29 36 0 4 9 18 20 32 11 14 20 22 20 17 0 -8 22 -14 68 -17 6 0 12 -5 12 -10
0 -6 3 -8 6 -5 9 9 -17 49 -64 98 -65 68 -72 76 -72 88 0 6 -7 15 -17 20 -27
16 24 27 53 12 12 -7 30 -10 39 -6 15 5 14 9 -9 27 -14 11 -26 26 -26 34 0 7
-8 16 -17 20 -17 6 -17 7 2 21 20 15 20 15 -1 20 -17 4 -20 13 -19 45 1 22 -2
42 -6 45 -13 8 3 35 17 30 8 -3 14 -1 14 4 0 10 -41 14 -112 10 -32 -1 -39 2
-48 25 -13 34 -14 31 12 55 26 24 38 26 38 5 0 -8 8 -16 18 -17 9 0 22 -2 29
-2 6 -1 14 -4 17 -7 4 -3 23 -3 44 1 35 5 37 8 34 40 -4 48 4 66 23 50 10 -9
15 -9 15 -1 0 6 7 11 15 11 8 0 15 7 15 15 0 8 7 15 15 15 8 0 15 4 15 9 0 5
-7 11 -15 15 -8 3 -15 10 -15 16 0 5 7 10 15 10 8 0 15 5 15 11 0 5 4 7 10 4
5 -3 7 0 4 8 -3 9 3 17 17 20 20 5 21 10 15 61 -6 55 -6 56 18 56 14 0 27 4
31 9 6 11 -15 61 -25 61 -23 0 -79 -33 -94 -54 -28 -43 -44 -45 -143 -21 -50
13 -96 26 -102 29 -6 4 -11 2 -11 -4 0 -7 -13 -10 -32 -8 -20 2 -37 -3 -44
-11 -7 -10 -17 -12 -30 -6 -24 10 -30 12 -49 14 -9 0 -19 11 -24 24 -10 26 -4
38 9 17 12 -20 23 -6 15 20 -4 12 -12 19 -20 16 -8 -3 -19 2 -25 10 -17 20
-25 18 -44 -11z m42 -33 c3 -16 -1 -19 -17 -15 -24 6 -23 5 -15 28 9 21 28 14
32 -13z m-101 -224 c-2 -13 -4 -5 -4 17 -1 22 1 32 4 23 2 -10 2 -28 0 -40z
m140 -63 c-14 -30 -27 -32 -27 -6 0 11 8 22 18 24 9 3 18 5 19 6 0 0 -4 -10
-10 -24z m-13 -50 c-21 -16 -44 -20 -44 -7 0 15 13 22 39 22 24 0 24 -1 5 -15z
m-24 -35 c16 -11 15 -11 -17 -15 -14 -1 -23 3 -23 11 0 16 18 18 40 4z m-27
-77 c-7 -2 -19 -2 -25 0 -7 3 -2 5 12 5 14 0 19 -2 13 -5z m-48 -223 c3 -5 2
-10 -4 -10 -5 0 -13 5 -16 10 -3 6 -2 10 4 10 5 0 13 -4 16 -10z m495 -204 c0
-3 -4 -8 -10 -11 -5 -3 -10 -1 -10 4 0 6 5 11 10 11 6 0 10 -2 10 -4z m-134
-83 c-10 -10 -19 5 -10 18 6 11 8 11 12 0 2 -7 1 -15 -2 -18z"/>
<path d="M530 1023 c0 -5 7 -18 15 -29 12 -16 14 -16 15 -3 0 9 -7 22 -15 29
-8 7 -15 8 -15 3z"/>
<path d="M1260 899 c-14 -5 -44 -13 -66 -19 -47 -11 -72 -42 -81 -98 -8 -44
-40 -83 -68 -80 -17 3 -21 -3 -23 -36 -2 -23 0 -36 7 -32 5 4 12 2 16 -4 3 -5
23 -10 43 -10 29 0 40 -5 47 -22 11 -24 82 -47 148 -48 l37 0 0 174 c0 149 -2
175 -16 180 -9 3 -16 6 -17 5 -1 -1 -13 -5 -27 -10z"/>
<path d="M1012 883 c0 -5 -2 -16 -7 -26 -10 -23 3 -36 15 -17 13 20 13 50 0
50 -5 0 -9 -3 -8 -7z"/>
<path d="M1104 433 c-103 -4 -115 -14 -87 -71 17 -34 51 -43 116 -31 23 4 74
5 114 2 l73 -6 0 45 c0 45 -1 46 -37 52 -64 11 -85 12 -179 9z"/>
<path d="M185 392 c-16 -2 -35 -8 -42 -14 -7 -5 -16 -7 -21 -4 -6 3 -15 -1
-22 -8 -9 -12 -7 -17 9 -25 29 -16 104 -13 127 4 10 8 15 15 9 15 -5 0 -3 4 5
10 25 16 -14 30 -65 22z"/>
<path d="M1114 218 c-3 -5 -13 -8 -22 -7 -33 3 -57 -1 -47 -9 6 -4 11 -36 12
-72 2 -36 5 -80 8 -97 l6 -33 124 0 125 0 0 109 0 109 -27 6 c-43 9 -173 5
-179 -6z"/>
<path d="M177 201 c2 -10 -3 -11 -24 -6 -31 9 -47 10 -110 7 l-43 -2 0 -90 c0
-89 0 -89 23 -81 12 5 21 16 19 24 -2 12 6 16 30 15 18 0 41 -5 51 -10 12 -6
17 -5 17 6 0 10 6 13 15 10 9 -4 15 0 16 7 0 8 3 23 5 34 3 11 7 29 9 40 2 11
7 29 11 39 5 13 4 17 -3 13 -6 -4 -13 -4 -16 0 -2 5 -2 2 0 -6z"/>
<path d="M800 70 c0 -5 7 -10 15 -10 8 0 15 5 15 10 0 6 -7 10 -15 10 -8 0
-15 -4 -15 -10z"/>
<path d="M765 19 c-4 -6 -5 -12 -2 -15 2 -3 7 2 10 11 7 17 1 20 -8 4z"/>
</g>
</svg>
